<svg width="22" height="22" viewBox="0 0 22 22" fill="none" xmlns="http://www.w3.org/2000/svg">
<path d="M14.668 2.75L14.668 5.5M7.33464 2.75L7.33463 5.5" stroke="#099BAA" stroke-width="2" stroke-linecap="round"/>
<path fill-rule="evenodd" clip-rule="evenodd" d="M12.668 3.6665H9.33464L9.33463 5.5C9.33463 6.60457 8.4392 7.5 7.33463 7.5C6.23006 7.5 5.33463 6.60457 5.33463 5.5L5.33463 3.75424C4.53103 3.85021 3.97625 4.05117 3.55546 4.47196C2.75 5.27742 2.75 6.57378 2.75 9.1665V13.7498C2.75 16.3426 2.75 17.6389 3.55546 18.4444C4.36091 19.2498 5.65727 19.2498 8.25 19.2498H13.75C16.3427 19.2498 17.6391 19.2498 18.4445 18.4444C19.25 17.6389 19.25 16.3426 19.25 13.7498V9.1665C19.25 6.57378 19.25 5.27742 18.4445 4.47196C18.0242 4.05162 17.4702 3.85064 16.668 3.75455L16.668 5.5C16.668 6.60457 15.7725 7.5 14.668 7.5C13.5634 7.5 12.668 6.60457 12.668 5.5L12.668 3.6665ZM7 12.9998C7 12.4476 7.44772 11.9998 8 11.9998H10V9.99985C10 9.44756 10.4477 8.99985 11 8.99985C11.5523 8.99985 12 9.44756 12 9.99985V11.9998H14C14.5523 11.9998 15 12.4476 15 12.9998C15 13.5521 14.5523 13.9998 14 13.9998H12V15.9998C12 16.5521 11.5523 16.9998 11 16.9998C10.4477 16.9998 10 16.5521 10 15.9998V13.9998H8C7.44772 13.9998 7 13.5521 7 12.9998Z" fill="#099BAA"/>
</svg>
