<svg width="22" height="22" viewBox="0 0 22 22" fill="none" xmlns="http://www.w3.org/2000/svg">
<path d="M18.0138 18.7049C18.5206 18.5993 18.8224 18.0691 18.5705 17.6168C18.0154 16.6198 17.1409 15.7437 16.0222 15.076C14.5814 14.2161 12.816 13.75 10.9999 13.75C9.18379 13.75 7.41843 14.2161 5.97761 15.076C4.85888 15.7437 3.98436 16.6198 3.42924 17.6168C3.17744 18.0691 3.47924 18.5993 3.98598 18.7049C8.61223 19.6691 13.3876 19.6691 18.0138 18.7049Z" fill="#099BAA"/>
<circle cx="15" cy="17" r="4.5" fill="#099BAA" stroke="#CCEAED"/>
<path d="M15 19L15 15" stroke="white" stroke-linecap="round"/>
<path d="M13 17L17 17" stroke="white" stroke-linecap="round"/>
<ellipse cx="11.0001" cy="7.33333" rx="4.58333" ry="4.58333" fill="#099BAA"/>
</svg>
