<svg width="16" height="16" viewBox="0 0 16 16" fill="none" xmlns="http://www.w3.org/2000/svg">
<path d="M8 4.90579C8.25888 4.90579 8.46875 4.69592 8.46875 4.43704V2.30286C8.46875 2.04398 8.25888 1.83411 8 1.83411C7.74112 1.83411 7.53125 2.04398 7.53125 2.30286V4.43704C7.53125 4.69592 7.74112 4.90579 8 4.90579Z" fill="#969BA0"/>
<path d="M15.5313 9.36536H13.3971C13.1382 9.36536 12.9283 9.57523 12.9283 9.83411C12.9283 10.093 13.1382 10.3029 13.3971 10.3029H15.5313C15.7901 10.3029 16 10.093 16 9.83411C16 9.57523 15.7901 9.36536 15.5313 9.36536Z" fill="#969BA0"/>
<path d="M3.07169 9.83411C3.07169 9.57523 2.86181 9.36536 2.60294 9.36536H0.46875C0.209875 9.36536 0 9.57523 0 9.83411C0 10.093 0.209875 10.3029 0.46875 10.3029H2.60294C2.86181 10.3029 3.07169 10.093 3.07169 9.83411Z" fill="#969BA0"/>
<path d="M12.3726 5.95633C12.4926 5.95633 12.6126 5.91055 12.7041 5.81902L13.8557 4.66739C14.0388 4.48436 14.0388 4.18755 13.8557 4.00448C13.6727 3.82142 13.3759 3.82142 13.1928 4.00448L12.0412 5.15611C11.8581 5.33914 11.8581 5.63595 12.0412 5.81902C12.1327 5.91055 12.2527 5.95633 12.3726 5.95633Z" fill="#969BA0"/>
<path d="M3.2959 5.81902C3.38744 5.91055 3.5074 5.95633 3.62734 5.95633C3.74728 5.95633 3.86728 5.91058 3.95878 5.81902C4.14184 5.63595 4.14184 5.33917 3.95878 5.15611L2.80712 4.00448C2.62409 3.82142 2.32728 3.82142 2.14422 4.00448C1.96115 4.18755 1.96115 4.48433 2.14422 4.66739L3.2959 5.81902Z" fill="#969BA0"/>
<path d="M13.7854 11.3981H11.7327C11.9392 10.9065 12.0468 10.3772 12.0468 9.83411C12.0468 7.60267 10.2314 5.78723 8 5.78723C5.76856 5.78723 3.95312 7.60264 3.95312 9.83411C3.95312 10.3772 4.06081 10.9065 4.26722 11.3981H2.21456C1.95569 11.3981 1.74581 11.608 1.74581 11.8669C1.74581 12.1258 1.95569 12.3356 2.21456 12.3356H5.05528H10.9447H13.7854C14.0443 12.3356 14.2542 12.1258 14.2542 11.8669C14.2542 11.608 14.0443 11.3981 13.7854 11.3981Z" fill="#969BA0"/>
<path d="M10.9447 13.2283H5.05531C4.79644 13.2283 4.58656 13.4381 4.58656 13.697C4.58656 13.9559 4.79644 14.1658 5.05531 14.1658H10.9447C11.2036 14.1658 11.4134 13.9559 11.4134 13.697C11.4134 13.4381 11.2036 13.2283 10.9447 13.2283Z" fill="#969BA0"/>
</svg>
