<svg width="22" height="20" viewBox="0 0 22 20" fill="none" xmlns="http://www.w3.org/2000/svg">
<rect width="22" height="20" rx="4" fill="#3F414D"/>
<path d="M11 7.29271C11.2265 7.29271 11.4102 7.10907 11.4102 6.88255V5.01514C11.4102 4.78862 11.2265 4.60498 11 4.60498C10.7735 4.60498 10.5898 4.78862 10.5898 5.01514V6.88255C10.5898 7.10907 10.7735 7.29271 11 7.29271Z" fill="white"/>
<path d="M17.5898 11.1948H15.7224C15.4959 11.1948 15.3123 11.3785 15.3123 11.605C15.3123 11.8315 15.4959 12.0151 15.7224 12.0151H17.5898C17.8163 12.0151 18 11.8315 18 11.605C18 11.3785 17.8163 11.1948 17.5898 11.1948Z" fill="white"/>
<path d="M6.68773 11.605C6.68773 11.3785 6.50409 11.1948 6.27757 11.1948H4.41016C4.18364 11.1948 4 11.3785 4 11.605C4 11.8315 4.18364 12.0151 4.41016 12.0151H6.27757C6.50409 12.0151 6.68773 11.8315 6.68773 11.605Z" fill="white"/>
<path d="M14.8261 8.21179C14.931 8.21179 15.036 8.17173 15.1161 8.09164L16.1238 7.08397C16.284 6.92381 16.284 6.6641 16.1238 6.50392C15.9636 6.34374 15.7039 6.34374 15.5437 6.50392L14.536 7.5116C14.3758 7.67175 14.3758 7.93146 14.536 8.09164C14.6161 8.17173 14.7211 8.21179 14.8261 8.21179Z" fill="white"/>
<path d="M6.88397 8.09164C6.96405 8.17173 7.06903 8.21179 7.17397 8.21179C7.27892 8.21179 7.38392 8.17176 7.46398 8.09164C7.62416 7.93146 7.62416 7.67178 7.46398 7.5116L6.45628 6.50392C6.29613 6.34374 6.03642 6.34374 5.87624 6.50392C5.71606 6.6641 5.71606 6.92379 5.87624 7.08397L6.88397 8.09164Z" fill="white"/>
<path d="M16.0623 12.9735H14.2662C14.4468 12.5433 14.541 12.0802 14.541 11.605C14.541 9.65247 12.9525 8.06396 11 8.06396C9.04749 8.06396 7.45899 9.65245 7.45899 11.605C7.45899 12.0802 7.55321 12.5433 7.73382 12.9735H5.93774C5.71123 12.9735 5.52759 13.1571 5.52759 13.3837C5.52759 13.6102 5.71123 13.7938 5.93774 13.7938H8.42337H13.5766H16.0622C16.2887 13.7938 16.4724 13.6102 16.4724 13.3837C16.4724 13.1571 16.2888 12.9735 16.0623 12.9735Z" fill="white"/>
<path d="M13.5765 14.575H8.42334C8.19682 14.575 8.01318 14.7586 8.01318 14.9851C8.01318 15.2116 8.19682 15.3953 8.42334 15.3953H13.5765C13.8031 15.3953 13.9867 15.2116 13.9867 14.9851C13.9867 14.7586 13.8031 14.575 13.5765 14.575Z" fill="white"/>
</svg>
