<svg width="16" height="16" viewBox="0 0 16 16" fill="none" xmlns="http://www.w3.org/2000/svg">
<path d="M15.5312 9.09375C15.2724 9.09375 15.0625 8.88388 15.0625 8.625V7.375C15.0625 7.11612 15.2724 6.90625 15.5312 6.90625C15.7901 6.90625 16 7.11612 16 7.375V8.625C16 8.88388 15.7901 9.09375 15.5312 9.09375Z" fill="#969BA0"/>
<path d="M15.5312 5.96875C15.2724 5.96875 15.0625 5.75888 15.0625 5.5V4.25C15.0625 3.99112 15.2724 3.78125 15.5312 3.78125C15.7901 3.78125 16 3.99112 16 4.25V5.5C16 5.75888 15.7901 5.96875 15.5312 5.96875Z" fill="#969BA0"/>
<path d="M14.2812 0.65625H14.9062C15.5093 0.65625 16 1.14691 16 1.75V2.375C16 2.63388 15.7901 2.84375 15.5312 2.84375C15.2724 2.84375 15.0625 2.63388 15.0625 2.375V1.75C15.0625 1.66384 14.9924 1.59375 14.9062 1.59375H14.2812C14.0224 1.59375 13.8125 1.38388 13.8125 1.125C13.8125 0.866125 14.0224 0.65625 14.2812 0.65625Z" fill="#969BA0"/>
<path d="M12.4062 1.59375H11.1562C10.8974 1.59375 10.6875 1.38388 10.6875 1.125C10.6875 0.866125 10.8974 0.65625 11.1562 0.65625H12.4062C12.6651 0.65625 12.875 0.866125 12.875 1.125C12.875 1.38388 12.6651 1.59375 12.4062 1.59375Z" fill="#969BA0"/>
<path d="M11.1562 14.4062H12.4062C12.6651 14.4062 12.875 14.6161 12.875 14.875C12.875 15.1339 12.6651 15.3438 12.4062 15.3438H11.1562C10.8974 15.3438 10.6875 15.1339 10.6875 14.875C10.6875 14.6161 10.8974 14.4062 11.1562 14.4062Z" fill="#969BA0"/>
<path d="M15.5312 12.2188C15.2724 12.2188 15.0625 12.0089 15.0625 11.75V10.5C15.0625 10.2411 15.2724 10.0312 15.5312 10.0312C15.7901 10.0312 16 10.2411 16 10.5V11.75C16 12.0089 15.7901 12.2188 15.5312 12.2188Z" fill="#969BA0"/>
<path d="M14.2812 14.4062H14.9062C14.9924 14.4062 15.0625 14.3362 15.0625 14.25V13.625C15.0625 13.3661 15.2724 13.1562 15.5312 13.1562C15.7901 13.1562 16 13.3661 16 13.625V14.25C16 14.8531 15.5093 15.3438 14.9062 15.3438H14.2812C14.0224 15.3438 13.8125 15.1339 13.8125 14.875C13.8125 14.6161 14.0224 14.4062 14.2812 14.4062Z" fill="#969BA0"/>
<path d="M1.09375 0.65625H7.53125V0.46875C7.53125 0.209875 7.74112 0 8 0C8.25887 0 8.46875 0.209875 8.46875 0.46875V0.65625H9.28125C9.54012 0.65625 9.75 0.866125 9.75 1.125C9.75 1.38388 9.54012 1.59375 9.28125 1.59375H8.46875V9.40625H10.6183L10.4811 9.26897C10.298 9.08591 10.298 8.78913 10.4811 8.60606C10.6641 8.423 10.9609 8.423 11.144 8.60606L12.0815 9.54356C12.2645 9.72663 12.2645 10.0234 12.0815 10.2065L11.144 11.144C10.9609 11.327 10.6641 11.327 10.4811 11.144C10.298 10.9609 10.298 10.6641 10.4811 10.4811L10.6183 10.3438H8.46875V14.4062H9.28125C9.54012 14.4062 9.75 14.6161 9.75 14.875C9.75 15.1339 9.54012 15.3438 9.28125 15.3438H8.46875V15.5312C8.46875 15.7901 8.25887 16 8 16C7.74112 16 7.53125 15.7901 7.53125 15.5312V15.3438H1.09375C0.490656 15.3438 0 14.8531 0 14.25V1.75C0 1.14691 0.490656 0.65625 1.09375 0.65625ZM3.91856 6.45644L4.85606 7.39394C5.03912 7.577 5.33591 7.577 5.51897 7.39394C5.70203 7.21088 5.70203 6.91409 5.51897 6.73103L5.38169 6.59375H7.53125V5.65625H5.38166L5.51894 5.51897C5.702 5.33591 5.702 5.03912 5.51894 4.85606C5.33587 4.673 5.03909 4.673 4.85603 4.85606L3.91853 5.79356C3.7355 5.97659 3.7355 6.27341 3.91856 6.45644Z" fill="#969BA0"/>
</svg>
