<svg width="18" height="18" viewBox="0 0 18 18" fill="none" xmlns="http://www.w3.org/2000/svg">
<path d="M3.75 3L2.25 4.5" stroke="#8F9493" stroke-width="2" stroke-linecap="round"/>
<path d="M14.25 3L15.75 4.5" stroke="#8F9493" stroke-width="2" stroke-linecap="round"/>
<path fill-rule="evenodd" clip-rule="evenodd" d="M9 15C12.3137 15 15 12.3137 15 9C15 5.68629 12.3137 3 9 3C5.68629 3 3 5.68629 3 9C3 12.3137 5.68629 15 9 15ZM11.2809 7.74969C11.6259 7.31843 11.556 6.68914 11.1247 6.34413C10.6934 5.99912 10.0641 6.06904 9.71913 6.5003L8.79186 7.65939L7.3047 6.66795C6.84517 6.3616 6.2243 6.48577 5.91795 6.9453C5.6116 7.40483 5.73577 8.0257 6.1953 8.33205L8.25459 9.70491C8.79408 10.0646 9.51901 9.95202 9.92405 9.44572L11.2809 7.74969Z" fill="#8F9493"/>
</svg>
