<svg width="22" height="22" viewBox="0 0 22 22" fill="none" xmlns="http://www.w3.org/2000/svg">
<path d="M14.666 2.75L14.666 5.5M7.33268 2.75L7.33268 5.5" stroke="#777D74" stroke-width="2" stroke-linecap="round"/>
<path fill-rule="evenodd" clip-rule="evenodd" d="M12.6667 3.6665H9.33333L9.33333 5.49984C9.33333 6.60441 8.4379 7.49984 7.33333 7.49984C6.22876 7.49984 5.33333 6.60441 5.33333 5.49984L5.33333 3.75439C4.53043 3.85043 3.97602 4.05139 3.55546 4.47196C2.75 5.27742 2.75 6.57378 2.75 9.1665V13.7498C2.75 16.3426 2.75 17.6389 3.55546 18.4444C4.36091 19.2498 5.65727 19.2498 8.24999 19.2498H8.25H13.75H13.75C16.3427 19.2498 17.6391 19.2498 18.4445 18.4444C19.25 17.6389 19.25 16.3426 19.25 13.7498V9.1665C19.25 6.57378 19.25 5.27742 18.4445 4.47196C18.024 4.05139 17.4696 3.85043 16.6667 3.75439L16.6667 5.49984C16.6667 6.6044 15.7712 7.49983 14.6667 7.49983C13.5621 7.49983 12.6667 6.6044 12.6667 5.49983L12.6667 3.6665ZM6.33333 10.9998C6.33333 10.4476 6.78105 9.99984 7.33333 9.99984L14.6667 9.99984C15.219 9.99984 15.6667 10.4476 15.6667 10.9998C15.6667 11.5521 15.219 11.9998 14.6667 11.9998L7.33333 11.9998C6.78105 11.9998 6.33333 11.5521 6.33333 10.9998ZM7.33333 13.6665C6.78105 13.6665 6.33333 14.1142 6.33333 14.6665C6.33333 15.2188 6.78105 15.6665 7.33333 15.6665L14.6667 15.6665C15.219 15.6665 15.6667 15.2188 15.6667 14.6665C15.6667 14.1142 15.219 13.6665 14.6667 13.6665L7.33333 13.6665Z" fill="#777D74"/>
</svg>
