<svg width="22" height="22" viewBox="0 0 22 22" fill="none" xmlns="http://www.w3.org/2000/svg">
<path d="M14.666 2.75L14.666 5.5M7.33268 2.75L7.33268 5.5" stroke="white" stroke-width="2" stroke-linecap="round"/>
<path fill-rule="evenodd" clip-rule="evenodd" d="M12.6667 3.6665H9.33333L9.33333 5.49984C9.33333 6.60441 8.4379 7.49984 7.33333 7.49984C6.22876 7.49984 5.33333 6.60441 5.33333 5.49984L5.33333 3.75439C4.53043 3.85043 3.97602 4.05139 3.55546 4.47196C2.75 5.27742 2.75 6.57378 2.75 9.1665V13.7498C2.75 16.3426 2.75 17.6389 3.55546 18.4444C4.36091 19.2498 5.65727 19.2498 8.25 19.2498H13.75C16.3427 19.2498 17.6391 19.2498 18.4445 18.4444C19.25 17.6389 19.25 16.3426 19.25 13.7498V9.1665C19.25 6.57378 19.25 5.27742 18.4445 4.47196C18.024 4.05139 17.4696 3.85043 16.6667 3.75439L16.6667 5.49984C16.6667 6.6044 15.7712 7.49983 14.6667 7.49983C13.5621 7.49983 12.6667 6.6044 12.6667 5.49983L12.6667 3.6665ZM12 10.9998C12 10.4476 12.4477 9.99985 13 9.99985H15C15.5523 9.99985 16 10.4476 16 10.9998C16 11.5521 15.5523 11.9998 15 11.9998H13C12.4477 11.9998 12 11.5521 12 10.9998ZM13 13.9998C12.4477 13.9998 12 14.4476 12 14.9998C12 15.5521 12.4477 15.9998 13 15.9998H15C15.5523 15.9998 16 15.5521 16 14.9998C16 14.4476 15.5523 13.9998 15 13.9998H13ZM6 10.9998C6 10.4476 6.44772 9.99985 7 9.99985H9C9.55228 9.99985 10 10.4476 10 10.9998C10 11.5521 9.55228 11.9998 9 11.9998H7C6.44772 11.9998 6 11.5521 6 10.9998ZM7 13.9998C6.44772 13.9998 6 14.4476 6 14.9998C6 15.5521 6.44772 15.9998 7 15.9998H9C9.55228 15.9998 10 15.5521 10 14.9998C10 14.4476 9.55228 13.9998 9 13.9998H7Z" fill="white"/>
</svg>
