<svg width="16" height="16" viewBox="0 0 16 16" fill="none" xmlns="http://www.w3.org/2000/svg">
<path d="M0.46875 9.09375C0.727625 9.09375 0.9375 8.88388 0.9375 8.625V7.375C0.9375 7.11612 0.727625 6.90625 0.46875 6.90625C0.209875 6.90625 0 7.11612 0 7.375V8.625C0 8.88388 0.209875 9.09375 0.46875 9.09375Z" fill="#969BA0"/>
<path d="M0.46875 5.96875C0.727625 5.96875 0.9375 5.75888 0.9375 5.5V4.25C0.9375 3.99112 0.727625 3.78125 0.46875 3.78125C0.209875 3.78125 0 3.99112 0 4.25V5.5C0 5.75888 0.209875 5.96875 0.46875 5.96875Z" fill="#969BA0"/>
<path d="M1.71875 0.65625H1.09375C0.490656 0.65625 0 1.14691 0 1.75V2.375C0 2.63388 0.209875 2.84375 0.46875 2.84375C0.727625 2.84375 0.9375 2.63388 0.9375 2.375V1.75C0.9375 1.66384 1.00759 1.59375 1.09375 1.59375H1.71875C1.97763 1.59375 2.1875 1.38388 2.1875 1.125C2.1875 0.866125 1.97763 0.65625 1.71875 0.65625Z" fill="#969BA0"/>
<path d="M3.59375 1.59375H4.84375C5.10263 1.59375 5.3125 1.38388 5.3125 1.125C5.3125 0.866125 5.10263 0.65625 4.84375 0.65625H3.59375C3.33487 0.65625 3.125 0.866125 3.125 1.125C3.125 1.38388 3.33487 1.59375 3.59375 1.59375Z" fill="#969BA0"/>
<path d="M4.84375 14.4062H3.59375C3.33487 14.4062 3.125 14.6161 3.125 14.875C3.125 15.1339 3.33487 15.3438 3.59375 15.3438H4.84375C5.10263 15.3438 5.3125 15.1339 5.3125 14.875C5.3125 14.6161 5.10263 14.4062 4.84375 14.4062Z" fill="#969BA0"/>
<path d="M0.46875 12.2188C0.727625 12.2188 0.9375 12.0089 0.9375 11.75V10.5C0.9375 10.2411 0.727625 10.0312 0.46875 10.0312C0.209875 10.0312 0 10.2411 0 10.5V11.75C0 12.0089 0.209875 12.2188 0.46875 12.2188Z" fill="#969BA0"/>
<path d="M1.71875 14.4062H1.09375C1.00759 14.4062 0.9375 14.3362 0.9375 14.25V13.625C0.9375 13.3661 0.727625 13.1562 0.46875 13.1562C0.209875 13.1562 0 13.3661 0 13.625V14.25C0 14.8531 0.490656 15.3438 1.09375 15.3438H1.71875C1.97763 15.3438 2.1875 15.1339 2.1875 14.875C2.1875 14.6161 1.97763 14.4062 1.71875 14.4062Z" fill="#969BA0"/>
<path d="M14.9062 0.65625H8.46875V0.46875C8.46875 0.209875 8.25888 0 8 0C7.74113 0 7.53125 0.209875 7.53125 0.46875V0.65625H6.71875C6.45988 0.65625 6.25 0.866125 6.25 1.125C6.25 1.38388 6.45988 1.59375 6.71875 1.59375H7.53125V9.40625H5.38166L5.51894 9.26897C5.702 9.08591 5.702 8.78913 5.51894 8.60606C5.33588 8.423 5.03909 8.423 4.85603 8.60606L3.91853 9.54356C3.73547 9.72663 3.73547 10.0234 3.91853 10.2065L4.85603 11.144C5.03909 11.327 5.33588 11.327 5.51894 11.144C5.702 10.9609 5.702 10.6641 5.51894 10.4811L5.38166 10.3438H7.53125V14.4062H6.71875C6.45988 14.4062 6.25 14.6161 6.25 14.875C6.25 15.1339 6.45988 15.3438 6.71875 15.3438H7.53125V15.5312C7.53125 15.7901 7.74113 16 8 16C8.25888 16 8.46875 15.7901 8.46875 15.5312V15.3438H14.9062C15.5093 15.3438 16 14.8531 16 14.25V1.75C16 1.14691 15.5093 0.65625 14.9062 0.65625ZM12.0814 6.45644L11.1439 7.39394C10.9609 7.577 10.6641 7.577 10.481 7.39394C10.298 7.21088 10.298 6.91409 10.481 6.73103L10.6183 6.59375H8.46875V5.65625H10.6183L10.4811 5.51897C10.298 5.33591 10.298 5.03912 10.4811 4.85606C10.6641 4.673 10.9609 4.673 11.144 4.85606L12.0815 5.79356C12.2645 5.97659 12.2645 6.27341 12.0814 6.45644Z" fill="#969BA0"/>
</svg>
