<svg width="14" height="14" viewBox="0 0 14 14" fill="none" xmlns="http://www.w3.org/2000/svg">
<path d="M0.410156 7.95703C0.636672 7.95703 0.820312 7.77339 0.820312 7.54688V6.45312C0.820312 6.22661 0.636672 6.04297 0.410156 6.04297C0.183641 6.04297 0 6.22661 0 6.45312V7.54688C0 7.77339 0.183641 7.95703 0.410156 7.95703Z" fill="white"/>
<path d="M0.410156 5.22266C0.636672 5.22266 0.820312 5.03902 0.820312 4.8125V3.71875C0.820312 3.49223 0.636672 3.30859 0.410156 3.30859C0.183641 3.30859 0 3.49223 0 3.71875V4.8125C0 5.03902 0.183641 5.22266 0.410156 5.22266Z" fill="white"/>
<path d="M1.50391 0.574219H0.957031C0.429324 0.574219 0 1.00354 0 1.53125V2.07812C0 2.30464 0.183641 2.48828 0.410156 2.48828C0.636672 2.48828 0.820312 2.30464 0.820312 2.07812V1.53125C0.820312 1.45586 0.881645 1.39453 0.957031 1.39453H1.50391C1.73042 1.39453 1.91406 1.21089 1.91406 0.984375C1.91406 0.757859 1.73042 0.574219 1.50391 0.574219Z" fill="white"/>
<path d="M3.14453 1.39453H4.23828C4.4648 1.39453 4.64844 1.21089 4.64844 0.984375C4.64844 0.757859 4.4648 0.574219 4.23828 0.574219H3.14453C2.91802 0.574219 2.73438 0.757859 2.73438 0.984375C2.73438 1.21089 2.91802 1.39453 3.14453 1.39453Z" fill="white"/>
<path d="M4.23828 12.6055H3.14453C2.91802 12.6055 2.73438 12.7891 2.73438 13.0156C2.73438 13.2421 2.91802 13.4258 3.14453 13.4258H4.23828C4.4648 13.4258 4.64844 13.2421 4.64844 13.0156C4.64844 12.7891 4.4648 12.6055 4.23828 12.6055Z" fill="white"/>
<path d="M0.410156 10.6914C0.636672 10.6914 0.820312 10.5078 0.820312 10.2812V9.1875C0.820312 8.96098 0.636672 8.77734 0.410156 8.77734C0.183641 8.77734 0 8.96098 0 9.1875V10.2812C0 10.5078 0.183641 10.6914 0.410156 10.6914Z" fill="white"/>
<path d="M1.50391 12.6055H0.957031C0.881645 12.6055 0.820312 12.5441 0.820312 12.4688V11.9219C0.820312 11.6954 0.636672 11.5117 0.410156 11.5117C0.183641 11.5117 0 11.6954 0 11.9219V12.4688C0 12.9965 0.429324 13.4258 0.957031 13.4258H1.50391C1.73042 13.4258 1.91406 13.2421 1.91406 13.0156C1.91406 12.7891 1.73042 12.6055 1.50391 12.6055Z" fill="white"/>
<path d="M13.043 0.574219H7.41017V0.410156C7.41017 0.183641 7.22653 0 7.00001 0C6.7735 0 6.58986 0.183641 6.58986 0.410156V0.574219H5.87892C5.6524 0.574219 5.46876 0.757859 5.46876 0.984375C5.46876 1.21089 5.6524 1.39453 5.87892 1.39453H6.58986V8.23047H4.70896L4.82908 8.11035C4.98926 7.95017 4.98926 7.69048 4.82908 7.5303C4.6689 7.37013 4.40922 7.37013 4.24904 7.5303L3.42873 8.35062C3.26855 8.5108 3.26855 8.77048 3.42873 8.93066L4.24904 9.75097C4.40922 9.91115 4.6689 9.91115 4.82908 9.75097C4.98926 9.59079 4.98926 9.33111 4.82908 9.17093L4.70896 9.05078H6.58986V12.6055H5.87892C5.6524 12.6055 5.46876 12.7891 5.46876 13.0156C5.46876 13.2421 5.6524 13.4258 5.87892 13.4258H6.58986V13.5898C6.58986 13.8164 6.7735 14 7.00001 14C7.22653 14 7.41017 13.8164 7.41017 13.5898V13.4258H13.043C13.5707 13.4258 14 12.9965 14 12.4688V1.53125C14 1.00354 13.5707 0.574219 13.043 0.574219ZM10.5713 5.64938L9.75096 6.4697C9.59078 6.62988 9.3311 6.62988 9.17092 6.4697C9.01074 6.30952 9.01074 6.04983 9.17092 5.88965L9.29104 5.76953H7.41017V4.94922H9.29106L9.17094 4.8291C9.01076 4.66892 9.01076 4.40923 9.17094 4.24905C9.33112 4.08887 9.59081 4.08887 9.75099 4.24905L10.5713 5.06937C10.7315 5.22952 10.7315 5.48923 10.5713 5.64938Z" fill="white"/>
</svg>
