<svg width="163" height="107" viewBox="0 0 163 107" fill="none" xmlns="http://www.w3.org/2000/svg">
<path d="M6.68633 92.3867C5.32245 92.3867 4.1249 92.685 3.12694 93.2814C2.12898 93.8779 1.36388 94.7063 0.831633 95.7999C0.266122 96.8602 0 98.0863 0 99.4449V99.9089C0 101.367 0.266122 102.593 0.831633 103.653C1.39714 104.714 2.19551 105.542 3.19347 106.106C4.22469 106.669 5.42224 106.967 6.81939 106.967C7.81735 106.967 8.74877 106.835 9.58041 106.603C10.412 106.337 11.1106 106.039 11.6429 105.675V102.295H9.51388L9.21449 104.283C8.88184 104.449 8.48265 104.548 8.08347 104.647C7.68429 104.747 7.25184 104.78 6.85265 104.78C6.02102 104.78 5.32245 104.581 4.72367 104.184C4.1249 103.786 3.65918 103.223 3.32653 102.494C2.99388 101.765 2.82755 100.903 2.82755 99.9089V99.4118C2.82755 98.4177 2.99388 97.5561 3.29327 96.8271C3.59265 96.0981 4.05837 95.5348 4.62388 95.1371C5.18939 94.7395 5.88796 94.5406 6.71959 94.5406C7.05224 94.5406 7.3849 94.5738 7.68429 94.6401C7.98367 94.7063 8.2498 94.7726 8.51592 94.9051C8.78204 95.0046 9.0149 95.1371 9.21449 95.3028L9.51388 97.4567H11.6429V94.0104C10.9776 93.4471 10.2124 93.0495 9.38082 92.7512C8.54918 92.5193 7.65102 92.3867 6.68633 92.3867Z" fill="white"/>
<path d="M17.9301 91.5913H13.5391V93.2813L15.0693 93.5795V104.813L13.7054 105.078V106.801H19.3272V105.078L17.9301 104.813V91.5913Z" fill="white"/>
<path d="M25.2152 96.2305H20.8242V97.9536L22.3544 98.2518V104.813L20.9573 105.078V106.801H26.5791V105.078L25.2152 104.813V96.2305Z" fill="white"/>
<path d="M25.2155 91.5913H22.2549V94.0103H25.2155V91.5913Z" fill="white"/>
<path d="M35.1611 103.289C35.0281 103.786 34.8285 104.15 34.5291 104.415C34.2297 104.68 33.8305 104.813 33.3315 104.813C32.9323 104.813 32.5997 104.714 32.267 104.482C31.9344 104.25 31.7015 103.918 31.5019 103.454C31.3023 102.99 31.2026 102.394 31.2026 101.665V101.367C31.2026 100.671 31.3023 100.108 31.4687 99.6105C31.635 99.1134 31.9011 98.7489 32.2338 98.4838C32.5664 98.2187 32.9989 98.0862 33.5311 98.0862C33.764 98.0862 34.0301 98.1193 34.263 98.2187C34.4958 98.3181 34.6954 98.4507 34.8617 98.5832L35.2609 100.472H37.4232L37.4564 97.4566C37.024 97.0589 36.4585 96.7275 35.7599 96.4293C35.0613 96.1311 34.263 95.9985 33.2983 95.9985C32.3003 95.9985 31.4354 96.2305 30.7036 96.6944C29.9717 97.1583 29.4062 97.7879 28.9738 98.5832C28.5746 99.3785 28.375 100.306 28.375 101.334V101.632C28.375 102.659 28.5746 103.587 28.9738 104.382C29.373 105.178 29.9385 105.807 30.6703 106.271C31.4021 106.735 32.3003 106.967 33.2983 106.967C34.2297 106.967 34.9948 106.834 35.5603 106.536C36.1591 106.238 36.6248 105.807 36.9574 105.277C37.2901 104.747 37.523 104.084 37.6228 103.322L37.5895 103.256H35.1611V103.289Z" fill="white"/>
<path d="M47.1365 100.671L49.7977 98.285L51.1616 97.9537V96.2305H45.6728V97.9537L46.7373 98.0862V98.1193L43.81 100.803V91.5913H39.4189V93.2813L40.9491 93.5795V104.813L39.552 105.078V106.801H45.0408V105.078L43.81 104.813V103.653L45.2071 102.394L47.1032 104.946L47.1365 104.979L46.3049 105.178V106.801H51.6273V105.078L50.2967 104.78L47.1365 100.671Z" fill="white"/>
<path d="M69.2583 92.5854H67.7281V94.3086L69.2583 94.6068V98.6827H63.4369V94.6068L64.9671 94.3086V92.5854H59.0791V94.3086L60.576 94.6068V104.813L59.0791 105.078V106.801H64.9671V105.078L63.4369 104.813V100.903H69.2583V104.813L67.7281 105.078V106.801H73.6493V105.078L72.1191 104.813V94.6068L73.6493 94.3086V92.5854H72.1191H69.2583Z" fill="white"/>
<path d="M82.8641 96.5951C82.1988 96.2306 81.4004 96.0317 80.4357 96.0317C79.471 96.0317 78.6061 96.2637 77.9075 96.7276C77.1757 97.1915 76.6435 97.8212 76.2443 98.6496C75.8451 99.478 75.6455 100.373 75.6455 101.433V101.831C75.6455 102.825 75.8451 103.72 76.2776 104.515C76.6767 105.31 77.2755 105.907 78.0406 106.337C78.8057 106.768 79.6706 107 80.7018 107C81.5667 107 82.3318 106.901 82.9639 106.669C83.6292 106.437 84.1614 106.139 84.6271 105.807L83.862 104.051C83.4296 104.316 82.9971 104.515 82.5314 104.647C82.0657 104.78 81.6 104.846 81.0678 104.846C80.5688 104.846 80.1363 104.747 79.7704 104.548C79.4045 104.349 79.1384 104.051 78.9388 103.686C78.7392 103.322 78.6394 102.924 78.6061 102.46L78.6394 102.394H84.86V100.837C84.86 99.8425 84.6937 98.981 84.361 98.2519C83.9951 97.5229 83.4961 96.9927 82.8641 96.5951ZM82.1655 100.472H78.6394L78.6061 100.439C78.6727 100.008 78.7724 99.6106 78.9055 99.2792C79.0386 98.9478 79.2714 98.6496 79.5043 98.4508C79.7704 98.2519 80.0698 98.1525 80.469 98.1525C80.8682 98.1525 81.2008 98.2519 81.4337 98.4176C81.6665 98.5833 81.8661 98.8153 81.9659 99.1466C82.0657 99.4449 82.1322 99.8094 82.1322 100.24V100.472H82.1655Z" fill="white"/>
<path d="M96.1038 104.515C96.1038 104.382 96.1038 104.25 96.1038 104.084V99.7431C96.1038 98.5502 95.7046 97.6223 94.9062 96.9927C94.1078 96.3631 93.0101 96.0317 91.613 96.0317C90.8146 96.0317 90.0827 96.1312 89.4507 96.33C88.8187 96.5288 88.2199 96.7939 87.6544 97.0921L87.6876 99.8425H89.7501L89.983 98.4508C90.1825 98.3182 90.3821 98.2188 90.6483 98.1194C90.9144 98.02 91.1805 98.02 91.4799 98.02C92.0787 98.02 92.5111 98.1857 92.8105 98.4839C93.1099 98.7821 93.2429 99.2129 93.2429 99.71V100.505H91.8458C90.8146 100.505 89.9497 100.638 89.2179 100.936C88.5193 101.234 87.987 101.632 87.6211 102.129C87.2552 102.626 87.0889 103.223 87.0889 103.885C87.0889 104.846 87.3883 105.608 88.0203 106.172C88.6523 106.735 89.484 107 90.5152 107C91.1472 107 91.6795 106.868 92.1452 106.603C92.6109 106.337 93.0101 106.006 93.3428 105.575C93.376 105.774 93.4425 106.006 93.5091 106.205C93.5756 106.404 93.6421 106.603 93.7087 106.801H97.2681V105.078L96.1703 104.913C96.137 104.813 96.137 104.681 96.1038 104.515ZM93.2429 103.918C93.0434 104.217 92.7772 104.449 92.4113 104.614C92.0454 104.78 91.6795 104.879 91.2803 104.879C90.8478 104.879 90.5152 104.78 90.2823 104.581C90.0495 104.382 89.9164 104.084 89.9164 103.72C89.9164 103.322 90.0827 102.957 90.4154 102.692C90.7481 102.394 91.2138 102.262 91.8458 102.262H93.2429V103.918Z" fill="white"/>
<path d="M103.156 91.5913H98.7646V93.2813L100.295 93.5795V104.813L98.931 105.078V106.801H104.553V105.078L103.156 104.813V91.5913Z" fill="white"/>
<path d="M126.974 94.3086L128.604 94.5405L126.874 101.698L126.575 102.792H126.508L126.175 101.698L123.248 92.5854H121.152L118.325 101.433L117.959 102.692H117.892L117.593 101.433L115.93 94.5405L117.46 94.3086V92.5854H111.705V94.3086L113.169 94.4411L116.495 106.801H119.09L121.818 98.517L122.217 97.3241H122.25L122.616 98.4839L125.311 106.801H127.905L131.232 94.4411L132.596 94.3086V92.5854H126.974V94.3086Z" fill="white"/>
<path d="M141.311 96.5951C140.646 96.2306 139.848 96.0317 138.883 96.0317C137.918 96.0317 137.053 96.2637 136.355 96.7276C135.623 97.1915 135.091 97.8212 134.692 98.6496C134.292 99.478 134.093 100.373 134.093 101.433V101.831C134.093 102.825 134.292 103.72 134.725 104.515C135.124 105.31 135.723 105.907 136.488 106.337C137.253 106.768 138.118 107 139.149 107C140.014 107 140.779 106.901 141.411 106.669C142.076 106.437 142.609 106.139 143.074 105.807L142.309 104.051C141.877 104.316 141.444 104.515 140.979 104.647C140.513 104.78 140.047 104.846 139.515 104.846C139.016 104.846 138.584 104.747 138.218 104.548C137.852 104.349 137.586 104.051 137.386 103.686C137.186 103.322 137.087 102.924 137.053 102.46L137.087 102.394H143.307V100.837C143.307 99.8425 143.141 98.981 142.808 98.2519C142.442 97.5229 141.943 96.9927 141.311 96.5951ZM140.646 100.472H137.12L137.087 100.439C137.153 100.008 137.253 99.6106 137.386 99.2792C137.519 98.9478 137.752 98.6496 137.985 98.4508C138.251 98.2519 138.55 98.1525 138.95 98.1525C139.349 98.1525 139.681 98.2519 139.914 98.4176C140.147 98.5833 140.347 98.8153 140.446 99.1466C140.546 99.4449 140.613 99.8094 140.613 100.24V100.472H140.646Z" fill="white"/>
<path d="M154.584 104.515C154.584 104.382 154.584 104.25 154.584 104.084V99.7431C154.584 98.5502 154.185 97.6223 153.387 96.9927C152.588 96.3631 151.491 96.0317 150.093 96.0317C149.295 96.0317 148.563 96.1312 147.931 96.33C147.299 96.5288 146.7 96.7939 146.135 97.0921L146.168 99.8425H148.231L148.463 98.4508C148.663 98.3182 148.863 98.2188 149.129 98.1194C149.362 98.0531 149.661 98.02 149.96 98.02C150.559 98.02 150.992 98.1857 151.291 98.4839C151.59 98.7821 151.723 99.2129 151.723 99.71V100.505H150.326C149.295 100.505 148.43 100.638 147.698 100.936C147 101.234 146.468 101.632 146.102 102.129C145.736 102.626 145.569 103.223 145.569 103.885C145.569 104.846 145.869 105.608 146.501 106.172C147.133 106.735 147.964 107 148.996 107C149.628 107 150.16 106.868 150.626 106.603C151.091 106.337 151.491 106.006 151.823 105.575C151.856 105.774 151.923 106.006 151.99 106.205C152.056 106.404 152.123 106.603 152.189 106.801H155.749V105.078L154.651 104.913C154.584 104.813 154.584 104.681 154.584 104.515ZM151.723 103.918C151.524 104.217 151.258 104.449 150.892 104.614C150.526 104.78 150.16 104.879 149.761 104.879C149.328 104.879 148.996 104.78 148.763 104.581C148.53 104.382 148.397 104.084 148.397 103.72C148.397 103.322 148.563 102.957 148.896 102.692C149.229 102.394 149.694 102.262 150.326 102.262H151.723V103.918Z" fill="white"/>
<path d="M161.603 104.813V91.5913H157.245V93.2813L158.742 93.5795V104.813L157.378 105.078V106.801H163V105.078L161.603 104.813Z" fill="white"/>
<path d="M89.7496 13.1555H55.9854V11.0678C55.9854 4.93744 60.9751 0 67.096 0H78.6723C84.7931 0 89.7496 4.93744 89.7496 11.0347V13.1555Z" fill="#F16963"/>
<path d="M51.628 14.9448C45.8399 14.9448 41.1162 19.6172 41.1162 25.4162V35.755C44.3429 31.414 48.1019 30.685 50.5303 30.685H71.9199V14.9448H51.628Z" fill="#F9B280"/>
<path d="M54.3557 32.6733V66.3076H52.26C46.1059 66.3076 41.1494 61.337 41.1494 55.2398V43.708C41.1494 37.6108 46.1059 32.6733 52.2268 32.6733H54.3557Z" fill="#F7F08D"/>
<path d="M56.1523 70.6155C56.1523 76.3814 60.8427 81.0869 66.6642 81.0869H77.043C72.6852 77.8726 71.9534 74.1281 71.9534 71.7091V50.4019H56.1856V70.6155H56.1523Z" fill="#5DC09B"/>
<path d="M73.8828 67.9312H107.647V70.0188C107.647 76.1492 102.657 81.0866 96.5365 81.0866H84.9602C78.8393 81.0866 73.8828 76.1492 73.8828 70.0519V67.9312Z" fill="#35BFC9"/>
<path d="M111.972 66.1417C117.76 66.1417 122.483 61.4694 122.483 55.6703V45.3315C119.257 49.6725 115.498 50.4015 113.069 50.4015H91.6797V66.1086L111.972 66.1417Z" fill="#67A8DB"/>
<path d="M109.243 48.4136V14.7793H111.339C117.493 14.7793 122.449 19.7499 122.449 25.8471V37.3789C122.449 43.4761 117.493 48.4136 111.372 48.4136H109.243Z" fill="#9490C5"/>
<path d="M107.447 10.4714C107.447 4.67234 102.757 0 96.9354 0H86.5566C90.9144 3.21431 91.6462 6.95881 91.6462 9.37783V30.685H107.447V10.4714Z" fill="#B082B9"/>
</svg>
