<svg width="20" height="20" viewBox="0 0 20 20" fill="none" xmlns="http://www.w3.org/2000/svg">
<path fill-rule="evenodd" clip-rule="evenodd" d="M17.5 5H2.50005V7.5C3.42052 7.5 4.16671 8.24619 4.16671 9.16667V11.6667C4.16671 14.3333 4.16671 15.6666 4.95488 16.5268C5.01385 16.5911 5.07559 16.6529 5.13994 16.7118C6.00008 17.5 7.3334 17.5 10 17.5C12.6667 17.5 14 17.5 14.8601 16.7118C14.9245 16.6529 14.9862 16.5911 15.0452 16.5268C15.8334 15.6666 15.8334 14.3333 15.8334 11.6667V9.16667C15.8334 8.24619 16.5796 7.5 17.5 7.5V5ZM8.91671 9.16667C8.91671 8.61438 8.469 8.16667 7.91671 8.16667C7.36443 8.16667 6.91671 8.61438 6.91671 9.16667V13.3333C6.91671 13.8856 7.36443 14.3333 7.91671 14.3333C8.469 14.3333 8.91671 13.8856 8.91671 13.3333V9.16667ZM13.0834 9.16667C13.0834 8.61438 12.6357 8.16667 12.0834 8.16667C11.5311 8.16667 11.0834 8.61438 11.0834 9.16667V13.3333C11.0834 13.8856 11.5311 14.3333 12.0834 14.3333C12.6357 14.3333 13.0834 13.8856 13.0834 13.3333V9.16667Z" fill="#969BA0"/>
<path d="M8.39012 2.80883C8.48508 2.72023 8.69432 2.64194 8.98539 2.5861C9.27647 2.53027 9.63311 2.5 10 2.5C10.3669 2.5 10.7235 2.53027 11.0146 2.5861C11.3057 2.64194 11.5149 2.72023 11.6099 2.80883" stroke="#969BA0" stroke-width="2" stroke-linecap="round"/>
</svg>
