<svg width="22" height="18" viewBox="0 0 22 18" fill="none" xmlns="http://www.w3.org/2000/svg">
<path d="M21.9996 13.7645C21.1236 14.1762 20.1973 14.4317 19.2399 14.5742C18.6547 14.6616 18.0624 14.7057 17.4369 14.7738C17.4369 14.6313 17.4355 14.5225 17.4369 14.4145C17.4454 13.717 17.4404 13.0203 17.2125 12.3477C16.7031 10.8427 15.6798 9.81686 14.1592 9.25645C14.0948 9.23304 14.0304 9.21032 13.9355 9.17659C14.7026 8.42478 15.1052 7.53528 15.1548 6.49087C16.0867 6.49087 16.9953 6.48055 17.9039 6.49638C18.2301 6.50258 18.562 6.5432 18.8783 6.61962C20.5051 7.00998 21.7123 8.32013 21.955 9.93115C21.9628 9.98416 21.9848 10.0351 21.9996 10.0867C21.9996 11.3122 21.9996 12.5384 21.9996 13.7645Z" fill="white"/>
<path d="M16.6661 15.0926C16.6661 15.6633 16.6612 16.2341 16.6697 16.8048C16.6718 16.9432 16.6286 17.0141 16.4984 17.074C15.6634 17.4575 14.7796 17.6771 13.8731 17.8169C11.2202 18.2265 8.62964 17.9194 6.07724 17.1711C5.67036 17.052 5.66965 17.0534 5.67036 16.6341C5.67178 15.6317 5.6555 14.6286 5.67815 13.6268C5.72414 11.5511 7.41182 9.84303 9.54743 9.75077C10.6754 9.70189 11.809 9.70947 12.9369 9.75766C14.5418 9.82651 16.083 11.1126 16.5055 12.643C16.6866 13.2998 16.664 13.9663 16.6668 14.6334C16.6668 14.7862 16.6661 14.9398 16.6661 15.0926Z" fill="white"/>
<path d="M7.17393 6.50464C7.23408 7.54767 7.62964 8.42615 8.38255 9.16075C5.7509 10.1418 4.7015 12.0564 4.91449 14.7332C4.50548 14.6974 4.13044 14.6754 3.75753 14.6293C2.56377 14.4826 1.3969 14.2134 0.242763 13.8857C0.0658571 13.8354 -0.00207476 13.7645 4.81125e-05 13.5731C0.0120777 12.557 -0.00136713 11.5408 0.00712434 10.5239C0.0233997 8.54939 1.41742 6.91566 3.3839 6.55696C3.55232 6.52667 3.72356 6.49844 3.8941 6.49707C4.9244 6.49018 5.9547 6.49156 6.98499 6.49156C7.0409 6.49225 7.0968 6.49982 7.17393 6.50464Z" fill="white"/>
<path d="M7.94532 6.36764C7.95028 4.63545 9.38958 3.2358 11.1671 3.23511C12.9369 3.23442 14.3911 4.64784 14.3932 6.37039C14.3953 8.10464 12.9376 9.516 11.153 9.50705C9.36765 9.4981 7.94108 8.10189 7.94532 6.36764Z" fill="white"/>
<path d="M5.51349 0.00137601C7.28892 0.00757222 8.72468 1.39965 8.73105 3.11532C8.73176 3.25301 8.68647 3.34527 8.57891 3.43408C7.8812 4.01377 7.44176 4.74286 7.25283 5.61859C7.23302 5.71015 7.14881 5.81893 7.06389 5.86299C5.9409 6.44475 4.81577 6.42891 3.75151 5.7549C2.69432 5.08709 2.21031 4.09639 2.29451 2.87229C2.40632 1.25645 3.83501 -0.00413173 5.51349 0.00137601Z" fill="white"/>
<path d="M16.5114 8.50876e-07C18.2211 0.0103279 19.6498 1.3253 19.7191 2.95215C19.7927 4.67195 18.5345 6.09363 16.7987 6.25405C16.2836 6.30155 15.789 6.22513 15.3071 6.04337C15.1868 5.99794 15.1302 5.94079 15.1089 5.81136C14.9271 4.69604 14.3553 3.81411 13.3993 3.17384C13.2804 3.09398 13.2776 3.00516 13.2861 2.89088C13.4085 1.26609 14.8301 -0.0096377 16.5114 8.50876e-07Z" fill="white"/>
</svg>
