<svg width="20" height="20" viewBox="0 0 20 20" fill="none" xmlns="http://www.w3.org/2000/svg">
<path fill-rule="evenodd" clip-rule="evenodd" d="M17.5 5H2.5V7.5C3.42047 7.5 4.16667 8.24619 4.16667 9.16667V11.6667C4.16667 14.3333 4.16667 15.6666 4.95483 16.5268C5.0138 16.5911 5.07555 16.6529 5.1399 16.7118C6.00003 17.5 7.33335 17.5 10 17.5C12.6666 17.5 14 17.5 14.8601 16.7118C14.9245 16.6529 14.9862 16.5911 15.0452 16.5268C15.8333 15.6666 15.8333 14.3333 15.8333 11.6667V9.16667C15.8333 8.24619 16.5795 7.5 17.5 7.5V5ZM8.91667 9.16667C8.91667 8.61438 8.46895 8.16667 7.91667 8.16667C7.36438 8.16667 6.91667 8.61438 6.91667 9.16667V13.3333C6.91667 13.8856 7.36438 14.3333 7.91667 14.3333C8.46895 14.3333 8.91667 13.8856 8.91667 13.3333V9.16667ZM13.0833 9.16667C13.0833 8.61438 12.6356 8.16667 12.0833 8.16667C11.531 8.16667 11.0833 8.61438 11.0833 9.16667V13.3333C11.0833 13.8856 11.531 14.3333 12.0833 14.3333C12.6356 14.3333 13.0833 13.8856 13.0833 13.3333V9.16667Z" fill="#969BA0"/>
<path d="M8.38996 2.80883C8.48492 2.72023 8.69416 2.64194 8.98523 2.5861C9.27631 2.53027 9.63295 2.5 9.99984 2.5C10.3667 2.5 10.7234 2.53027 11.0144 2.5861C11.3055 2.64194 11.5148 2.72023 11.6097 2.80883" stroke="#969BA0" stroke-width="2" stroke-linecap="round"/>
</svg>
