<svg width="28" height="28" viewBox="0 0 28 28" fill="none" xmlns="http://www.w3.org/2000/svg">
<circle cx="14" cy="14" r="14" fill="#F3F2F2"/>
<path fill-rule="evenodd" clip-rule="evenodd" d="M20 10H8V12C8.73638 12 9.33333 12.597 9.33333 13.3333V15.3333C9.33333 16.8878 9.33333 17.6651 9.61441 18.2679C9.91249 18.9071 10.4263 19.4208 11.0655 19.7189C11.6682 20 12.4455 20 14 20C15.5545 20 16.3318 20 16.9345 19.7189C17.5737 19.4208 18.0875 18.9071 18.3856 18.2679C18.6667 17.6651 18.6667 16.8878 18.6667 15.3333V13.3333C18.6667 12.597 19.2636 12 20 12V10ZM13.3333 13.3333C13.3333 12.781 12.8856 12.3333 12.3333 12.3333C11.781 12.3333 11.3333 12.781 11.3333 13.3333V16.6667C11.3333 17.219 11.781 17.6667 12.3333 17.6667C12.8856 17.6667 13.3333 17.219 13.3333 16.6667V13.3333ZM16.6667 13.3333C16.6667 12.781 16.219 12.3333 15.6667 12.3333C15.1144 12.3333 14.6667 12.781 14.6667 13.3333V16.6667C14.6667 17.219 15.1144 17.6667 15.6667 17.6667C16.219 17.6667 16.6667 17.219 16.6667 16.6667V13.3333Z" fill="#FA5353"/>
<path d="M12.7123 8.24706C12.7882 8.17618 12.9556 8.11355 13.1885 8.06888C13.4213 8.02421 13.7067 8 14.0002 8C14.2937 8 14.579 8.02421 14.8118 8.06888C15.0447 8.11355 15.2121 8.17618 15.2881 8.24706" stroke="#FA5353" stroke-width="2" stroke-linecap="round"/>
</svg>
