<svg width="22" height="22" viewBox="0 0 22 22" fill="none" xmlns="http://www.w3.org/2000/svg">
<path d="M14.668 2.75L14.668 5.5M7.33464 2.75L7.33463 5.5" stroke="#777D74" stroke-width="2" stroke-linecap="round"/>
<path fill-rule="evenodd" clip-rule="evenodd" d="M12.668 3.6665H9.33464L9.33463 5.5C9.33463 6.60457 8.4392 7.5 7.33463 7.5C6.23006 7.5 5.33463 6.60457 5.33463 5.5L5.33463 3.75424C4.53103 3.85021 3.97625 4.05117 3.55546 4.47196C2.75 5.27742 2.75 6.57378 2.75 9.1665V13.7498C2.75 16.3426 2.75 17.6389 3.55546 18.4444C4.36091 19.2498 5.65727 19.2498 8.25 19.2498H13.75C16.3427 19.2498 17.6391 19.2498 18.4445 18.4444C19.25 17.6389 19.25 16.3426 19.25 13.7498V9.1665C19.25 6.57378 19.25 5.27742 18.4445 4.47196C18.0242 4.05162 17.4702 3.85064 16.668 3.75455L16.668 5.5C16.668 6.60457 15.7725 7.5 14.668 7.5C13.5634 7.5 12.668 6.60457 12.668 5.5L12.668 3.6665Z" fill="#777D74"/>
<path fill-rule="evenodd" clip-rule="evenodd" d="M12.7373 12.6834L13.6203 11.8004L13.6203 11.8004C13.7704 11.6502 13.8455 11.5751 13.8928 11.4984C14.0458 11.2504 14.0458 10.9373 13.8928 10.6892C13.8455 10.6125 13.7705 10.5374 13.6203 10.3873L13.6203 10.3873L13.6203 10.3873C13.4701 10.2371 13.395 10.162 13.3183 10.1147C13.0703 9.96176 12.7572 9.96176 12.5091 10.1147C12.4324 10.162 12.3574 10.2371 12.2072 10.3873L12.2072 10.3873L11.3159 11.2786C11.6713 11.8504 12.1579 12.3327 12.7373 12.6834ZM10.6903 11.9042L8.65123 13.9432C8.48742 14.1071 8.40551 14.189 8.35166 14.2896C8.29781 14.3902 8.27509 14.5038 8.22966 14.731L8.02461 15.7562C7.99897 15.8844 7.98615 15.9485 8.02261 15.985C8.05907 16.0214 8.12317 16.0086 8.25135 15.983L9.2766 15.7779L9.27661 15.7779L9.27662 15.7779C9.50378 15.7325 9.61736 15.7098 9.71798 15.6559C9.8186 15.6021 9.90051 15.5201 10.0643 15.3563L12.1102 13.3104C11.5485 12.9381 11.0663 12.4596 10.6903 11.9042Z" fill="white"/>
</svg>
