<svg width="22" height="22" viewBox="0 0 22 22" fill="none" xmlns="http://www.w3.org/2000/svg">
<path d="M18.0138 18.7049C18.5206 18.5993 18.8224 18.0691 18.5705 17.6168C18.0154 16.6198 17.1409 15.7437 16.0222 15.076C14.5814 14.2161 12.816 13.75 10.9999 13.75C9.18379 13.75 7.41843 14.2161 5.97761 15.076C4.85888 15.7437 3.98436 16.6198 3.42924 17.6168C3.17744 18.0691 3.47924 18.5993 3.98598 18.7049C8.61223 19.6691 13.3876 19.6691 18.0138 18.7049Z" fill="#777D74"/>
<circle cx="15" cy="17" r="4.5" fill="#777D74" stroke="white"/>
<path fill-rule="evenodd" clip-rule="evenodd" d="M16.2491 16.6181L16.7314 16.1357C16.9912 15.8759 16.9912 15.4547 16.7314 15.1949C16.4716 14.935 16.0504 14.935 15.7905 15.1949L15.3023 15.6831C15.5345 16.0673 15.8595 16.3894 16.2491 16.6181ZM14.6765 16.3089L13.5332 17.4522C13.3694 17.616 13.2875 17.6979 13.2336 17.7986C13.1798 17.8992 13.157 18.0128 13.1116 18.2399L13.0246 18.6749C12.999 18.8031 12.9862 18.8672 13.0226 18.9037C13.0591 18.9401 13.1232 18.9273 13.2514 18.9017L13.6863 18.8147L13.6863 18.8147C13.9135 18.7692 14.0271 18.7465 14.1277 18.6927C14.2283 18.6388 14.3102 18.5569 14.4741 18.3931L15.6218 17.2453C15.2501 16.9946 14.9297 16.6765 14.6765 16.3089Z" fill="white"/>
<ellipse cx="11.0001" cy="7.33333" rx="4.58333" ry="4.58333" fill="#777D74"/>
</svg>
