<svg width="25" height="24" viewBox="0 0 25 24" fill="none" xmlns="http://www.w3.org/2000/svg">
<path fill-rule="evenodd" clip-rule="evenodd" d="M18.1782 10.8289L19.8763 9.21159L19.8763 9.21158C20.4121 8.70134 20.68 8.44622 20.8293 8.17387C21.1578 7.57483 21.1578 6.84953 20.8293 6.25048C20.68 5.97813 20.4121 5.72301 19.8764 5.21278L19.8763 5.21277L19.8763 5.21276L19.8763 5.21275C19.3856 4.7454 19.1402 4.51172 18.8804 4.37927C18.3098 4.08842 17.6344 4.08842 17.0638 4.37927C16.804 4.51172 16.5586 4.7454 16.0679 5.21276L14.1466 7.04262C15.1166 8.64034 16.5083 9.95373 18.1782 10.8289ZM12.6697 8.44912L5.86088 14.9337C5.41412 15.3592 5.19074 15.572 5.04291 15.8373C4.89507 16.1026 4.83168 16.4044 4.70488 17.0082L4.11375 19.8232C4.04401 20.1553 4.00914 20.3213 4.10288 20.4168C4.19662 20.5123 4.36329 20.4806 4.69663 20.4171L7.80687 19.8247L7.80691 19.8247L7.80695 19.8247C8.38147 19.7152 8.66874 19.6605 8.92522 19.5287C9.18172 19.3969 9.39349 19.1952 9.81704 18.7919L16.6628 12.2721C15.0551 11.314 13.6908 10.0041 12.6697 8.44912Z" fill="white"/>
</svg>
