<svg width="22" height="20" viewBox="0 0 22 20" fill="none" xmlns="http://www.w3.org/2000/svg">
<rect width="22" height="20" rx="4" fill="#3F414D"/>
<path d="M17.0622 9.79478C16.949 9.59862 16.6981 9.5313 16.5019 9.64467L15.3605 10.3037C15.1644 10.417 15.0971 10.6678 15.2104 10.864C15.2864 10.9955 15.4243 11.0691 15.566 11.0691C15.6356 11.0691 15.7061 11.0514 15.7707 11.0141L16.9121 10.3551C17.1082 10.2418 17.1755 9.99095 17.0622 9.79478Z" fill="white"/>
<path d="M14.5 7.23278C14.3038 7.11946 14.0529 7.18673 13.9397 7.38289L13.2807 8.5243C13.1675 8.7205 13.2347 8.97135 13.4309 9.08458C13.4954 9.12187 13.5659 9.13962 13.6355 9.13962C13.7773 9.13962 13.9152 9.06604 13.9912 8.93446L14.6501 7.79305C14.7634 7.59686 14.6961 7.34601 14.5 7.23278Z" fill="white"/>
<path d="M11 6.29492C10.7735 6.29492 10.5898 6.47856 10.5898 6.70508V8.02305C10.5898 8.24956 10.7735 8.4332 11 8.4332C11.2265 8.4332 11.4102 8.24956 11.4102 8.02305V6.70508C11.4102 6.47856 11.2265 6.29492 11 6.29492Z" fill="white"/>
<path d="M8.7192 8.52429L8.06022 7.38291C7.94696 7.18672 7.69611 7.11945 7.49995 7.23279C7.30378 7.34605 7.23654 7.5969 7.34983 7.79307L8.00881 8.93445C8.08477 9.06606 8.22264 9.13961 8.36439 9.13961C8.43398 9.13961 8.50453 9.12189 8.56909 9.08457C8.76525 8.97131 8.83249 8.72049 8.7192 8.52429Z" fill="white"/>
<path d="M6.63949 10.3039L5.49811 9.64489C5.30192 9.53158 5.05107 9.59882 4.93784 9.79501C4.82458 9.99117 4.89176 10.242 5.08795 10.3553L6.22934 11.0143C6.29392 11.0516 6.36441 11.0693 6.434 11.0693C6.57578 11.0693 6.71365 10.9958 6.78961 10.8642C6.90287 10.668 6.83568 10.4172 6.63949 10.3039Z" fill="white"/>
<path d="M17.5898 12.8847H14.0184C13.8174 11.3984 12.5405 10.2488 11 10.2488C9.45945 10.2488 8.18255 11.3984 7.98161 12.8847H4.41016C4.18364 12.8847 4 13.0683 4 13.2948C4 13.5214 4.18364 13.705 4.41016 13.705H17.5898C17.8164 13.705 18 13.5214 18 13.2948C18 13.0683 17.8164 12.8847 17.5898 12.8847Z" fill="white"/>
</svg>
