<svg width="16" height="16" viewBox="0 0 16 16" fill="none" xmlns="http://www.w3.org/2000/svg">
<path d="M14.9282 7.76562C14.7988 7.54144 14.5121 7.4645 14.2879 7.59406L12.9834 8.34722C12.7593 8.47669 12.6824 8.76334 12.8119 8.98753C12.8987 9.1379 13.0563 9.222 13.2183 9.222C13.2978 9.222 13.3784 9.20175 13.4522 9.15909L14.7566 8.40594C14.9808 8.27647 15.0577 7.98981 14.9282 7.76562Z" fill="#969BA0"/>
<path d="M12 4.83744C11.7758 4.70794 11.4891 4.78482 11.3597 5.009L10.6066 6.31347C10.4772 6.53769 10.5539 6.82438 10.7782 6.95378C10.852 6.99641 10.9325 7.01669 11.0121 7.01669C11.1741 7.01669 11.3317 6.9326 11.4185 6.78222L12.1716 5.47775C12.301 5.25353 12.2242 4.96685 12 4.83744Z" fill="#969BA0"/>
<path d="M7.99997 3.76562C7.74109 3.76562 7.53122 3.9755 7.53122 4.23438V5.74063C7.53122 5.9995 7.74109 6.20938 7.99997 6.20938C8.25884 6.20938 8.46872 5.9995 8.46872 5.74063V4.23438C8.46872 3.9755 8.25884 3.76562 7.99997 3.76562Z" fill="#969BA0"/>
<path d="M5.39341 6.31346L4.64028 5.00902C4.51085 4.78481 4.22416 4.70793 3.99997 4.83746C3.77578 4.9669 3.69894 5.25359 3.82841 5.47777L4.58153 6.78221C4.66835 6.93262 4.82591 7.01668 4.98791 7.01668C5.06744 7.01668 5.14807 6.99643 5.22185 6.95377C5.44603 6.82434 5.52288 6.53768 5.39341 6.31346Z" fill="#969BA0"/>
<path d="M3.01656 8.34732L1.71212 7.59416C1.4879 7.46466 1.20122 7.54151 1.07181 7.76572C0.942373 7.98991 1.01915 8.2766 1.24337 8.40604L2.54781 9.15919C2.62162 9.20182 2.70219 9.2221 2.78172 9.2221C2.94375 9.2221 3.10131 9.13804 3.18812 8.98763C3.31756 8.76344 3.24078 8.47676 3.01656 8.34732Z" fill="#969BA0"/>
<path d="M15.5312 11.2969H11.4496C11.2199 9.59824 9.76059 8.28442 8 8.28442C6.23938 8.28442 4.78006 9.59824 4.55041 11.2969H0.46875C0.209875 11.2969 0 11.5068 0 11.7656C0 12.0245 0.209875 12.2344 0.46875 12.2344H15.5312C15.7901 12.2344 16 12.0245 16 11.7656C16 11.5068 15.7901 11.2969 15.5312 11.2969Z" fill="#969BA0"/>
</svg>
