<svg width="28" height="30" viewBox="0 0 28 30" fill="none" xmlns="http://www.w3.org/2000/svg">
<ellipse cx="14" cy="14.9802" rx="14" ry="14.5437" fill="#F3F2F2"/>
<path d="M9.88771 8.92213C12.6241 8.68937 15.3759 8.68937 18.1123 8.92213L19.4306 9.03428C20.3083 9.10893 21.0599 9.62118 21.4494 10.3539C21.4992 10.4476 21.4619 10.5611 21.3701 10.6168L15.9002 13.9302C14.7271 14.6408 13.2479 14.6558 12.0601 13.9689L6.55367 10.7849C6.46471 10.7335 6.42388 10.6276 6.46397 10.5344C6.82027 9.70619 7.62131 9.11492 8.56935 9.03428L9.88771 8.92213Z" fill="#089BAB"/>
<path d="M6.45949 12.2188C6.32334 12.1401 6.14962 12.2248 6.13375 12.3787C5.91225 14.5276 5.96586 16.6969 6.29458 18.8359C6.46787 19.9636 7.40839 20.8281 8.56936 20.9269L9.88771 21.039C12.6241 21.2718 15.3759 21.2718 18.1123 21.039L19.4306 20.9269C20.5916 20.8281 21.5321 19.9636 21.7054 18.8359C22.0437 16.6346 22.0906 14.4012 21.8462 12.1909C21.829 12.0359 21.6524 11.9527 21.5169 12.0348L16.5895 15.0197C15.0023 15.9811 13.001 16.0013 11.3939 15.072L6.45949 12.2188Z" fill="#089BAB"/>
</svg>
