<svg width="16" height="16" viewBox="0 0 16 16" fill="none" xmlns="http://www.w3.org/2000/svg">
<g clip-path="url(#clip0_834_2435)">
<path d="M7.52941 3.25464H8.47059V5.13699H7.52941V3.25464Z" fill="#969BA0"/>
<path d="M11.6584 6.45874L12.9892 5.12792L13.6547 5.79333L12.3238 7.12415L11.6584 6.45874Z" fill="#969BA0"/>
<path d="M13.6471 10.3135H15.5294V11.2547H13.6471V10.3135Z" fill="#969BA0"/>
<path d="M0.470589 10.3135H2.35294V11.2547H0.470589V10.3135Z" fill="#969BA0"/>
<path d="M2.34229 5.79248L3.0077 5.12707L4.33851 6.45787L3.67309 7.12328L2.34229 5.79248Z" fill="#969BA0"/>
<path d="M12.0759 13.1369C12.4862 12.427 12.7059 11.6173 12.7059 10.784C12.7059 8.18918 10.5948 6.07812 8 6.07812C5.40518 6.07812 3.29412 8.18918 3.29412 10.784C3.29412 11.6173 3.51379 12.427 3.92408 13.1369H0V14.0781H4.63297H11.367H16V13.1369H12.0759Z" fill="#969BA0"/>
<path d="M0 15.0193H16V15.9605H0V15.0193Z" fill="#969BA0"/>
<path d="M4.49631 2.705L3.97427 1.92188L2.82353 2.68903L1.67278 1.92188L1.15074 2.705L2.82353 3.8202L4.49631 2.705Z" fill="#969BA0"/>
<path d="M14.8493 2.705L14.3272 1.92188L13.1765 2.68903L12.0257 1.92188L11.5037 2.705L13.1765 3.8202L14.8493 2.705Z" fill="#969BA0"/>
<path d="M9.67279 0.822672L9.15075 0.0395508L8 0.806704L6.84926 0.0395508L6.32722 0.822672L8 1.93787L9.67279 0.822672Z" fill="#969BA0"/>
</g>
<defs>
<clipPath id="clip0_834_2435">
<rect width="16" height="16" fill="white"/>
</clipPath>
</defs>
</svg>
