<svg width="14" height="12" viewBox="0 0 14 12" fill="none" xmlns="http://www.w3.org/2000/svg">
<path d="M7 3.29271C7.22652 3.29271 7.41016 3.10907 7.41016 2.88255V1.01514C7.41016 0.788621 7.22652 0.60498 7 0.60498C6.77348 0.60498 6.58984 0.788621 6.58984 1.01514V2.88255C6.58984 3.10907 6.77348 3.29271 7 3.29271Z" fill="white"/>
<path d="M13.5898 7.19482H11.7224C11.4959 7.19482 11.3123 7.37846 11.3123 7.60498C11.3123 7.8315 11.4959 8.01514 11.7224 8.01514H13.5898C13.8163 8.01514 14 7.8315 14 7.60498C14 7.37846 13.8163 7.19482 13.5898 7.19482Z" fill="white"/>
<path d="M2.68773 7.60498C2.68773 7.37846 2.50409 7.19482 2.27757 7.19482H0.410156C0.183641 7.19482 0 7.37846 0 7.60498C0 7.8315 0.183641 8.01514 0.410156 8.01514H2.27757C2.50409 8.01514 2.68773 7.8315 2.68773 7.60498Z" fill="white"/>
<path d="M10.8261 4.21179C10.931 4.21179 11.036 4.17173 11.1161 4.09164L12.1238 3.08397C12.284 2.92381 12.284 2.6641 12.1238 2.50392C11.9636 2.34374 11.7039 2.34374 11.5437 2.50392L10.536 3.5116C10.3758 3.67175 10.3758 3.93146 10.536 4.09164C10.6161 4.17173 10.7211 4.21179 10.8261 4.21179Z" fill="white"/>
<path d="M2.88397 4.09164C2.96405 4.17173 3.06903 4.21179 3.17397 4.21179C3.27892 4.21179 3.38392 4.17176 3.46398 4.09164C3.62416 3.93146 3.62416 3.67178 3.46398 3.5116L2.45628 2.50392C2.29613 2.34374 2.03642 2.34374 1.87624 2.50392C1.71606 2.6641 1.71606 2.92379 1.87624 3.08397L2.88397 4.09164Z" fill="white"/>
<path d="M12.0623 8.97351H10.2662C10.4468 8.54331 10.541 8.08016 10.541 7.60498C10.541 5.65247 8.95251 4.06396 7 4.06396C5.04749 4.06396 3.45899 5.65245 3.45899 7.60498C3.45899 8.08019 3.55321 8.54334 3.73382 8.97351H1.93774C1.71123 8.97351 1.52759 9.15715 1.52759 9.38366C1.52759 9.61018 1.71123 9.79382 1.93774 9.79382H4.42337H9.57658H12.0622C12.2887 9.79382 12.4724 9.61018 12.4724 9.38366C12.4724 9.15715 12.2888 8.97351 12.0623 8.97351Z" fill="white"/>
<path d="M9.57652 10.575H4.42334C4.19682 10.575 4.01318 10.7586 4.01318 10.9851C4.01318 11.2116 4.19682 11.3953 4.42334 11.3953H9.57654C9.80306 11.3953 9.9867 11.2116 9.9867 10.9851C9.9867 10.7586 9.80306 10.575 9.57652 10.575Z" fill="white"/>
</svg>
