<svg width="32" height="28" viewBox="0 0 32 28" fill="none" xmlns="http://www.w3.org/2000/svg">
<circle cx="14" cy="14" r="14" fill="#F3F2F2"/>
<path fill-rule="evenodd" clip-rule="evenodd" d="M14.9231 5.91139C14.9231 5.40804 14.5098 5 14 5C13.4902 5 13.0769 5.40804 13.0769 5.91139V6.59494H12.5624C10.5084 6.59494 8.80844 8.17166 8.68022 10.1956L8.47622 13.416C8.39844 14.6438 7.98093 15.827 7.26917 16.8368C6.62607 17.7491 7.19859 19.0092 8.31639 19.1416L11.4615 19.5143V20.4937C11.4615 21.8779 12.598 23 14 23C15.402 23 16.5385 21.8779 16.5385 20.4937V19.5143L19.6836 19.1416C20.8014 19.0092 21.3739 17.7491 20.7308 16.8368C20.0191 15.827 19.6016 14.6438 19.5238 13.416L19.3198 10.1956C19.1916 8.17166 17.4916 6.59494 15.4376 6.59494H14.9231V5.91139ZM12.8461 20.4937C12.8461 21.1229 13.3627 21.6329 14 21.6329C14.6373 21.6329 15.1539 21.1229 15.1539 20.4937V19.8101H12.8461V20.4937Z" fill="#089BAB"/>
</svg>
