<svg width="28" height="28" viewBox="0 0 28 28" fill="none" xmlns="http://www.w3.org/2000/svg">
<circle cx="14" cy="14" r="14" fill="#F3F2F2"/>
<path d="M11.5112 15.7871C11.3885 15.7871 11.3059 15.7991 11.2632 15.8111V16.5964C11.3139 16.6084 11.3772 16.6118 11.4645 16.6118C11.7839 16.6118 11.9805 16.4504 11.9805 16.1778C11.9805 15.9338 11.8112 15.7871 11.5112 15.7871ZM13.8358 15.7951C13.7025 15.7951 13.6158 15.8071 13.5645 15.8191V17.5591C13.6158 17.5711 13.6985 17.5711 13.7732 17.5711C14.3178 17.5751 14.6725 17.2751 14.6725 16.6404C14.6765 16.0871 14.3532 15.7951 13.8358 15.7951Z" fill="#0A9CAB"/>
<path d="M15.3332 7.3335H9.99984C9.64622 7.3335 9.30708 7.47397 9.05703 7.72402C8.80698 7.97407 8.6665 8.31321 8.6665 8.66683V19.3335C8.6665 19.6871 8.80698 20.0262 9.05703 20.2763C9.30708 20.5264 9.64622 20.6668 9.99984 20.6668H17.9998C18.3534 20.6668 18.6926 20.5264 18.9426 20.2763C19.1927 20.0262 19.3332 19.6871 19.3332 19.3335V11.3335L15.3332 7.3335ZM12.3318 16.7935C12.1258 16.9868 11.8218 17.0735 11.4678 17.0735C11.3992 17.0742 11.3306 17.0702 11.2625 17.0615V18.0122H10.6665V15.3882C10.9355 15.348 11.2073 15.3298 11.4792 15.3335C11.8505 15.3335 12.1145 15.4042 12.2925 15.5462C12.4618 15.6808 12.5765 15.9015 12.5765 16.1615C12.5758 16.4228 12.4892 16.6435 12.3318 16.7935ZM14.8698 17.6968C14.5898 17.9295 14.1638 18.0402 13.6432 18.0402C13.3312 18.0402 13.1105 18.0202 12.9605 18.0002V15.3888C13.2296 15.3496 13.5012 15.331 13.7732 15.3335C14.2778 15.3335 14.6058 15.4242 14.8618 15.6175C15.1385 15.8228 15.3118 16.1502 15.3118 16.6202C15.3118 17.1288 15.1258 17.4802 14.8698 17.6968ZM17.3332 15.8468H16.3118V16.4542H17.2665V16.9435H16.3118V18.0128H15.7078V15.3535H17.3332V15.8468ZM15.3332 12.0002H14.6665V8.66683L17.9998 12.0002H15.3332Z" fill="#0A9CAB"/>
</svg>
