<svg width="14" height="18" viewBox="0 0 14 18" fill="none" xmlns="http://www.w3.org/2000/svg">
<path d="M8.66683 0.666504H2.00016C1.55814 0.666504 1.13421 0.842096 0.821655 1.15466C0.509088 1.46722 0.333496 1.89115 0.333496 2.33317V15.6665C0.333496 16.1085 0.509088 16.5324 0.821655 16.845C1.13421 17.1576 1.55814 17.3332 2.00016 17.3332H12.0002C12.4422 17.3332 12.8661 17.1576 13.1787 16.845C13.4912 16.5324 13.6668 16.1085 13.6668 15.6665V5.6665L8.66683 0.666504ZM4.91516 12.4915C4.65766 12.7332 4.27766 12.8415 3.83516 12.8415C3.74936 12.8424 3.6636 12.8374 3.5785 12.8265V14.0148H2.8335V10.7348C3.1697 10.6847 3.50943 10.6618 3.84933 10.6665C4.3135 10.6665 4.6435 10.7548 4.866 10.9323C5.07766 11.1007 5.221 11.3765 5.221 11.7015C5.22016 12.0282 5.11183 12.304 4.91516 12.4915ZM8.08766 13.6207C7.73766 13.9115 7.20516 14.0498 6.55433 14.0498C6.16433 14.0498 5.8885 14.0248 5.701 13.9998V10.7357C6.03733 10.6866 6.37691 10.6634 6.71683 10.6665C7.34766 10.6665 7.75766 10.7798 8.07766 11.0215C8.4235 11.2782 8.64016 11.6873 8.64016 12.2748C8.64016 12.9107 8.40766 13.3498 8.08766 13.6207ZM11.1668 11.3082H9.89016V12.0673H11.0835V12.679H9.89016V14.0157H9.13516V10.6915H11.1668V11.3082ZM8.66683 6.49984H7.8335V2.33317L12.0002 6.49984H8.66683Z" fill="#969BA0"/>
</svg>
