<svg width="18" height="18" viewBox="0 0 18 18" fill="none" xmlns="http://www.w3.org/2000/svg">
<path d="M1.96924 1.22923L2.57441 0.654312C2.96037 0.287645 3.56594 0.287644 3.95191 0.654311L6.71053 3.275C7.12553 3.66925 7.12553 4.33075 6.71053 4.725L4.85651 6.48632C4.53665 6.79018 4.45767 7.26958 4.66315 7.65999C5.80429 9.82814 7.61722 11.5682 9.83036 12.6194L9.99149 12.696C10.3772 12.8791 10.8358 12.806 11.1453 12.5119L13.1007 10.6543C13.4867 10.2876 14.0923 10.2876 14.4782 10.6543L17.2368 13.275C17.6518 13.6693 17.6518 14.3307 17.2368 14.725L16.3228 15.5934C14.2403 17.5717 11.0479 17.7966 8.70863 16.1299L6.98837 14.9042C5.21563 13.6411 3.63116 12.1328 2.28238 10.4244L1.39244 9.29709C-0.529296 6.86289 -0.279239 3.36528 1.96924 1.22923Z" fill="#A09E9E"/>
</svg>
