<svg width="20" height="20" viewBox="0 0 20 20" fill="none" xmlns="http://www.w3.org/2000/svg">
<path d="M0 18.125C0.059375 17.8135 0.100521 17.4974 0.181771 17.1922C0.536458 15.863 1.27448 14.7927 2.42656 14.0385C3.57969 13.2839 4.75625 12.5641 5.925 11.8276C6.11198 11.937 6.20156 12.0698 6.19792 12.2995C6.18333 13.2104 6.18906 14.1224 6.19479 15.0333C6.19583 15.1635 6.15573 15.224 6.03542 15.2786C5.21198 15.6552 4.81302 16.5583 5.08385 17.4099C5.34323 18.226 6.19375 18.7531 7.01875 18.6099C7.92917 18.4516 8.55677 17.7031 8.5099 16.7964C8.47448 16.1104 8.13177 15.6047 7.51667 15.2964C7.39948 15.2375 7.35833 15.1766 7.35938 15.0474C7.36615 14.3771 7.36198 13.7063 7.36302 13.0359C7.36302 12.9786 7.36875 12.9214 7.37396 12.824C8.21615 13.226 9.09375 13.2901 9.99063 13.2885C10.8885 13.287 11.7693 13.2349 12.6104 12.8302C12.6104 13.5927 12.6104 14.3203 12.6104 15.0786C12.4188 15.0786 12.2266 15.0786 12.0344 15.0786C11.1141 15.0792 10.5479 15.6432 10.5469 16.5604C10.5464 16.8599 10.5432 17.1594 10.5479 17.4589C10.5563 18.013 10.974 18.4276 11.5302 18.4375C11.7125 18.4406 11.8948 18.4401 12.0771 18.4375C12.4375 18.4323 12.6984 18.1813 12.6948 17.8458C12.6911 17.5188 12.4333 17.2734 12.0844 17.2667C11.9688 17.2646 11.8531 17.2661 11.7198 17.2661C11.7198 16.9828 11.7156 16.7177 11.7214 16.4526C11.724 16.3208 11.8057 16.2516 11.937 16.2516C12.7573 16.2505 13.5776 16.25 14.3979 16.2521C14.5401 16.2526 14.6089 16.3385 14.6094 16.4781C14.6104 16.7313 14.6094 16.9844 14.6094 17.2661C14.4797 17.2661 14.3589 17.2641 14.238 17.2667C13.8911 17.2745 13.6339 17.524 13.6339 17.8516C13.6339 18.1786 13.8911 18.4302 14.238 18.437C14.4333 18.4406 14.6286 18.4417 14.824 18.4365C15.3484 18.4224 15.7656 18.0135 15.7792 17.4917C15.7885 17.1276 15.7885 16.7625 15.7786 16.3979C15.7594 15.6839 15.1766 15.1026 14.4635 15.0807C14.2495 15.074 14.0344 15.0797 13.7896 15.0797C13.7896 15.0031 13.7896 14.9349 13.7896 14.8667C13.7896 14.0333 13.801 13.2 13.7823 12.3672C13.7771 12.1208 13.8531 11.9589 14.0714 11.8286C14.3589 12.0089 14.6557 12.1938 14.9521 12.3802C15.849 12.9453 16.7656 13.4823 17.638 14.0833C19.0042 15.0245 19.7703 16.3469 19.9661 17.9974C19.9714 18.0411 19.9891 18.0828 20.0005 18.1255C20.0005 18.7505 20.0005 19.3755 20.0005 20.0005C13.3339 20.0005 6.66719 20.0005 0.000520833 20.0005C0 19.375 0 18.75 0 18.125Z" fill="white"/>
<path d="M12.2268 0C12.6419 0.0895833 13.0419 0.214583 13.381 0.486458C13.9518 0.94375 14.2794 1.53594 14.2909 2.26667C14.3096 3.46354 14.2966 4.66146 14.2966 5.85885C14.2966 5.8901 14.2914 5.92135 14.2877 5.9625C11.4315 5.9625 8.58356 5.9625 5.70336 5.9625C5.70336 5.8974 5.70336 5.82917 5.70336 5.76146C5.70336 4.65521 5.70284 3.54896 5.70336 2.44271C5.70388 1.17865 6.46325 0.2625 7.70232 0.0291667C7.72732 0.0244792 7.74971 0.00989583 7.77367 0C9.25804 0 10.7424 0 12.2268 0ZM9.41481 2.69531C9.27627 2.69531 9.16638 2.69375 9.05596 2.69583C8.69659 2.70156 8.43513 2.9526 8.43825 3.28698C8.4419 3.61354 8.69971 3.8599 9.04763 3.86667C9.16794 3.86927 9.28825 3.86719 9.41429 3.86719C9.41429 4.01562 9.41169 4.13281 9.41481 4.25C9.42419 4.5849 9.67159 4.83854 9.99086 4.84323C10.3179 4.84844 10.5747 4.59219 10.5846 4.24792C10.5883 4.12656 10.5851 4.00469 10.5851 3.86719C10.7221 3.86719 10.8377 3.86927 10.9539 3.86667C11.3023 3.85937 11.5591 3.6125 11.5612 3.2849C11.5633 2.95729 11.3065 2.70417 10.9612 2.69583C10.8398 2.69271 10.7185 2.69531 10.5851 2.69531C10.5851 2.54792 10.5888 2.425 10.5846 2.3026C10.5726 1.97031 10.3179 1.71875 9.99867 1.71927C9.67888 1.71979 9.42627 1.97187 9.41481 2.30469C9.41117 2.42708 9.41481 2.54948 9.41481 2.69531Z" fill="white"/>
<path d="M14.2972 7.15988C14.2764 7.97759 14.3706 8.78592 14.1003 9.57134C13.5863 11.0667 12.1858 12.0984 10.604 12.1047C9.97481 12.1073 9.33263 12.1302 8.71804 12.0229C6.97377 11.7187 5.71804 10.1755 5.70294 8.40207C5.69929 7.99269 5.70242 7.58332 5.70242 7.15988C8.56648 7.15988 11.4191 7.15988 14.2972 7.15988Z" fill="white"/>
<path d="M7.34242 16.8823C7.33826 17.1984 7.07055 17.4615 6.75492 17.4604C6.43201 17.4594 6.16274 17.1807 6.17211 16.8578C6.18149 16.5422 6.45388 16.2828 6.76951 16.2896C7.08565 16.2964 7.34659 16.5662 7.34242 16.8823Z" fill="white"/>
</svg>
