<svg width="28" height="28" viewBox="0 0 28 28" fill="none" xmlns="http://www.w3.org/2000/svg">
<circle cx="14" cy="14" r="14" fill="#F3F2F2"/>
<path d="M12.6818 9.17857V17.8214C12.6818 18.134 12.5525 18.4338 12.3224 18.6548C12.0922 18.8758 11.78 19 11.4545 19H10.2273C9.90178 19 9.58962 18.8758 9.35946 18.6548C9.1293 18.4338 9 18.134 9 17.8214V9.17857C9 8.86599 9.1293 8.56622 9.35946 8.3452C9.58962 8.12417 9.90178 8 10.2273 8H11.4545C11.78 8 12.0922 8.12417 12.3224 8.3452C12.5525 8.56622 12.6818 8.86599 12.6818 9.17857ZM16.7727 8H15.5455C15.22 8 14.9078 8.12417 14.6776 8.3452C14.4475 8.56622 14.3182 8.86599 14.3182 9.17857V17.8214C14.3182 18.134 14.4475 18.4338 14.6776 18.6548C14.9078 18.8758 15.22 19 15.5455 19H16.7727C17.0982 19 17.4104 18.8758 17.6405 18.6548C17.8707 18.4338 18 18.134 18 17.8214V9.17857C18 8.86599 17.8707 8.56622 17.6405 8.3452C17.4104 8.12417 17.0982 8 16.7727 8Z" fill="#2BBEB2"/>
</svg>
