<svg width="14" height="17" viewBox="0 0 14 17" fill="none" xmlns="http://www.w3.org/2000/svg">
<path d="M5.72727 1.82143V15.1786C5.72727 15.6616 5.52614 16.1249 5.16811 16.4665C4.81009 16.8081 4.3245 17 3.81818 17H1.90909C1.40277 17 0.917184 16.8081 0.55916 16.4665C0.201136 16.1249 0 15.6616 0 15.1786V1.82143C0 1.33836 0.201136 0.875068 0.55916 0.533484C0.917184 0.1919 1.40277 0 1.90909 0H3.81818C4.3245 0 4.81009 0.1919 5.16811 0.533484C5.52614 0.875068 5.72727 1.33836 5.72727 1.82143ZM12.0909 0H10.1818C9.6755 0 9.18991 0.1919 8.83189 0.533484C8.47386 0.875068 8.27273 1.33836 8.27273 1.82143V15.1786C8.27273 15.6616 8.47386 16.1249 8.83189 16.4665C9.18991 16.8081 9.6755 17 10.1818 17H12.0909C12.5972 17 13.0828 16.8081 13.4408 16.4665C13.7989 16.1249 14 15.6616 14 15.1786V1.82143C14 1.33836 13.7989 0.875068 13.4408 0.533484C13.0828 0.1919 12.5972 0 12.0909 0Z" fill="#A09E9E"/>
</svg>
