<svg width="22" height="23" viewBox="0 0 22 23" fill="none" xmlns="http://www.w3.org/2000/svg">
<path d="M14.6665 2.75L14.6665 5.5M7.33317 2.75L7.33317 5.5" stroke="#A09E9E" stroke-width="2" stroke-linecap="round"/>
<path d="M4.58333 4.66675L2.75 6.50008" stroke="#A09E9E" stroke-width="2" stroke-linecap="round"/>
<path d="M17.4167 4.66675L19.25 6.50008" stroke="#A09E9E" stroke-width="2" stroke-linecap="round"/>
<path fill-rule="evenodd" clip-rule="evenodd" d="M10.9998 19.3334C15.0499 19.3334 18.3332 16.0502 18.3332 12.0001C18.3332 7.94999 15.0499 4.66675 10.9998 4.66675C6.94975 4.66675 3.6665 7.94999 3.6665 12.0001C3.6665 16.0502 6.94975 19.3334 10.9998 19.3334ZM13.614 10.3331C13.959 9.90185 13.8891 9.27256 13.4579 8.92755C13.0266 8.58254 12.3973 8.65246 12.0523 9.08372L10.7917 10.6595L8.80454 9.3347C8.34501 9.02835 7.72414 9.15252 7.41779 9.61205C7.11143 10.0716 7.23561 10.6924 7.69514 10.9988L10.2544 12.705C10.7939 13.0647 11.5188 12.9521 11.9239 12.4458L13.614 10.3331Z" fill="#A09E9E"/>
</svg>
