<svg width="22" height="22" viewBox="0 0 22 22" fill="none" xmlns="http://www.w3.org/2000/svg">
<path d="M18.014 18.7049C18.5208 18.5993 18.8226 18.0691 18.5708 17.6168C18.0157 16.6198 17.1412 15.7437 16.0224 15.076C14.5816 14.2161 12.8162 13.75 11.0001 13.75C9.18403 13.75 7.41867 14.2161 5.97786 15.076C4.85913 15.7437 3.9846 16.6198 3.42949 17.6168C3.17768 18.0691 3.47948 18.5993 3.98623 18.7049C8.61247 19.6691 13.3878 19.6691 18.014 18.7049Z" fill="#099BAA"/>
<ellipse cx="10.9993" cy="7.33333" rx="4.58333" ry="4.58333" fill="#099BAA"/>
<rect x="10.5" y="15" width="1" height="4" rx="0.5" fill="#FDFEFE"/>
<rect x="13" y="16.5" width="1" height="4" rx="0.5" transform="rotate(90 13 16.5)" fill="#FDFEFE"/>
</svg>
