<svg width="20" height="20" viewBox="0 0 20 20" fill="none" xmlns="http://www.w3.org/2000/svg">
<path fill-rule="evenodd" clip-rule="evenodd" d="M17.2669 10C17.2669 9.63361 17.0712 9.4024 16.6798 8.93999C15.4376 7.47233 12.9127 5 10 5C7.08732 5 4.56244 7.47233 3.32019 8.93999C2.9288 9.4024 2.7331 9.63361 2.7331 10C2.7331 10.3664 2.9288 10.5976 3.32019 11.06C4.56244 12.5277 7.08732 15 10 15C12.9127 15 15.4376 12.5277 16.6798 11.06C17.0712 10.5976 17.2669 10.3664 17.2669 10ZM10 12.5C11.3807 12.5 12.5 11.3807 12.5 10C12.5 8.61929 11.3807 7.5 10 7.5C8.61929 7.5 7.5 8.61929 7.5 10C7.5 11.3807 8.61929 12.5 10 12.5Z" fill="#969BA0"/>
</svg>
